<svg xmlns="http://www.w3.org/2000/svg" viewBox="0 0 40 28" fill="none"> <path fill-rule="evenodd" clip-rule="evenodd" d="M24.10465 0.070322C19.489425 0.452945 15.4132 2.80625 12.943125 6.514275C12.3365 7.424975 11.9881 8.102575 11.4909 9.3392C11.044675 10.448875 10.737025 10.811175 10.07805 11.00265C9.76555 11.0935 9.4731 11.11665 9.06915 11.08245C8.047825 10.9962 7.556525 10.72805 7.239175 10.0839C7.049575 9.699025 7.0495 9.696275 7.009 5.708075C6.98045 2.8929 6.94045 1.6547475 6.873275 1.5046325C6.71045 1.140955 6.2748 0.7080275 5.86035 0.4980925C5.468975 0.2998475 5.435425 0.297025 3.55465 0.30291C1.679755 0.308875 1.638705 0.312585 1.2248225 0.514215C0.9930425 0.6270825 0.6741625 0.870475 0.516175 1.055015C-0.044163 1.7094875 -0.014000225 0.9323125 0.01083915 14.060325L0.033178 25.9035L0.20552075 26.276C0.4418975 26.787 0.911025 27.28475 1.3991025 27.54225C1.79887 27.75325 1.84339 27.75825 3.518525 27.7835L5.2296 27.8095L5.720825 27.589C6.28875 27.33425 6.771825 26.83775 6.914325 26.3625C6.9811 26.1395 7.010225 24.892425 7.012725 22.145225C7.01465 19.99985 7.04675 18.0864 7.0841 17.89315C7.1745 17.4254 7.384825 17.162175 7.8629 16.91855C8.213725 16.7398 8.36115 16.716425 9.146325 16.71465C9.97095 16.712875 10.06005 16.72835 10.411275 16.93475C10.899775 17.22175 11.06615 17.465475 11.36825 18.336325C12.88465 22.70755 16.4842 26.069 21.082125 27.40775C23.827625 28.20725 26.882 28.197 29.671 27.379C33.876 26.14575 37.362 23.067675 38.97525 19.1639C41.88575 12.120675 38.39225 4.143175 31.0825 1.1396675C29.61075 0.534935 28.27075 0.22470875 26.44525 0.0660485C25.422 -0.0228755 25.22425 -0.022552275 24.10465 0.070322ZM20.17155 6.80315C19.6909 7.042575 18.91005 7.8504 18.643525 8.383775C18.546025 8.579125 18.40635 8.9724 18.3331 9.257875C18.1223 10.0805 18.2494 10.820925 18.953775 12.873425C19.419425 14.2305 19.491125 14.58565 19.54805 15.817275C19.662975 18.30295 20.004125 19.8919 20.636975 20.8894C20.9056 21.3129 21.31675 21.559275 21.62555 21.4818C21.876525 21.418825 22.2245 21.0725 22.4183 20.6926C22.501125 20.530325 22.77485 19.71355 23.02655 18.877625C23.554625 17.12355 23.73665 16.721425 24.252375 16.1704C25.0095 15.3612 25.50375 15.293175 26.18425 15.904575C26.727 16.392575 27.0105 17.013025 27.44475 18.663475C27.95975 20.6207 28.3255 21.280175 28.978 21.427225C29.20575 21.47865 29.34175 21.455525 29.61075 21.31975C30.42825 20.90705 30.9665 19.22725 31.125 16.5918C31.24175 14.652625 31.2995 14.329825 31.81025 12.76235C32.05575 12.00855 32.30875 11.096 32.372 10.734575C32.60425 9.4104 32.21 8.2939 31.17325 7.338375C30.28725 6.5221 29.62925 6.44285 27.93725 6.9485C27.3605 7.120775 26.65275 7.314675 26.3645 7.379425C25.6445 7.5409 24.3144 7.474075 23.66285 7.24365C21.72635 6.558775 20.877225 6.45165 20.17155 6.80315Z" fill="#1E76FE"></path> </svg>
